<svg id="图层_1" data-name="图层 1" xmlns="http://www.w3.org/2000/svg" viewBox="0 0 1920 1080"><defs><style>.cls-1{fill:#d12920;}</style></defs><path class="cls-1" d="M939.68,718.7c-.74-27.9,5.53-56.85,14.84-81.57,10.22-27.13,27.54-50,41.23-75.27,33.27-59.53,44.83-134.78,30.87-201.64-4.66-22.32-15.62-43.55-30.45-60.79a135.33,135.33,0,0,0-25.78-23.19,129.29,129.29,0,0,0-14.64-8.72c-1.86-.95-9.86-5.13-15.83-6.78a269.42,269.42,0,0,1-9.64,147.94c-17.77,49.6-50.58,85.6-86.83,121.86-42.69,42.69-64.08,92.49-62.82,148.34,1.69,75,61.9,140.84,139.38,140.37,20.36,0,38.62-4.75,56.75-12.94-7.65,3.46-28.64-42.47-30.48-48A136.2,136.2,0,0,1,939.68,718.7Z"/><path class="cls-1" d="M1136.42,638.68q-1.11-6.12-2.65-12.17a169.48,169.48,0,0,0-9.66-27.67A191.16,191.16,0,0,0,1110,573.09a188.16,188.16,0,0,0-18.53-24c-2-2.2-4.06-4.39-6.27-6.4,2.27,2.07-3.94,21.54-4.77,24.64a158.48,158.48,0,0,1-8.06,23c-12.16,27.57-32.16,49.65-53.23,70.73-28,28-42.06,60.71-41.24,97.37a96.44,96.44,0,0,0,21.85,58.74c13.61,2.8,29.52,0,42.9-4.42a138.27,138.27,0,0,0,40.1-21.26c31.6-24.07,52.73-61.13,56-101.56A198,198,0,0,0,1136.42,638.68Z"/></svg>